<?xml version="1.0" standalone="no"?>
<!DOCTYPE svg PUBLIC "-//W3C//DTD SVG 20010904//EN"
 "http://www.w3.org/TR/2001/REC-SVG-20010904/DTD/svg10.dtd">
<svg version="1.0" xmlns="http://www.w3.org/2000/svg"
 width="700.000000pt" height="471.000000pt" viewBox="0 0 700.000000 471.000000"
 preserveAspectRatio="xMidYMid meet">

<g transform="translate(0.000000,471.000000) scale(0.100000,-0.100000)"
fill="#000000" stroke="none">
<path d="M0 2360 l0 -2350 3500 0 3500 0 0 2350 0 2350 -3500 0 -3500 0 0
-2350z m5416 1962 c15 -9 3 -37 -16 -37 -19 0 -31 28 -16 37 6 4 13 8 16 8 3
0 10 -4 16 -8z m-1 -296 c26 -7 47 -23 62 -45 22 -33 23 -41 23 -277 0 -133
-4 -254 -10 -268 -17 -45 -55 -61 -150 -63 -47 -1 -88 -2 -92 -2 -29 -3 27
-117 88 -178 l45 -45 -33 7 c-18 4 -67 22 -108 41 -59 28 -90 51 -146 110
l-71 74 -1380 0 c-1359 0 -1381 0 -1405 20 -39 30 -48 88 -48 313 0 242 12
292 75 318 34 14 3103 10 3150 -5z m1168 -203 c-3 -7 -11 -13 -18 -13 -17 0
-26 25 -13 38 13 13 38 -7 31 -25z m-6034 -13 c13 0 15 -17 1 -25 -5 -3 -7
-12 -4 -19 4 -9 -4 -13 -25 -12 -21 1 -31 6 -31 17 0 8 -5 20 -12 27 -9 9 -8
12 5 12 10 0 20 7 24 16 6 16 7 16 18 0 7 -9 17 -16 24 -16z m5330 -698 c19
-10 41 -28 49 -40 13 -20 13 -22 -2 -22 -19 0 -20 -5 -6 -30 7 -12 16 -17 27
-13 14 5 15 -1 11 -46 -3 -29 -12 -60 -22 -69 -10 -10 -16 -12 -16 -4 0 7 -5
12 -11 12 -5 0 -9 -10 -7 -22 3 -24 -24 -43 -80 -54 -30 -6 -30 -5 -29 33 2
34 5 39 23 35 34 -6 64 41 64 100 0 60 -14 88 -43 88 -33 0 -47 -13 -62 -56
-14 -39 -14 -39 -15 -8 0 38 -34 74 -52 56 -9 -9 -8 -12 5 -12 10 0 22 -12 27
-26 14 -36 12 -44 -7 -37 -11 4 -14 3 -9 -5 4 -7 1 -12 -8 -12 -10 0 -13 -6
-10 -15 4 -8 12 -15 20 -15 16 0 16 -2 8 -24 -9 -24 -33 -19 -40 8 -11 45 2
138 21 152 15 11 21 11 34 1 12 -10 14 -9 8 7 -5 12 -3 23 5 28 22 14 82 9
117 -10z m-4249 -31 c0 -11 -17 -33 -26 -33 -13 1 -22 36 -11 44 11 7 37 0 37
-11z m4220 -26 c17 -20 18 -83 1 -122 -25 -60 -65 -31 -65 45 0 76 33 115 64
77z m100 -21 c0 -8 -19 -13 -24 -6 -3 5 1 9 9 9 8 0 15 -2 15 -3z m-283 -71
c-3 -10 -5 -2 -5 17 0 19 2 27 5 18 2 -10 2 -26 0 -35z m106 -23 c3 -12 0 -20
-8 -20 -8 0 -11 8 -8 20 3 11 7 20 8 20 1 0 5 -9 8 -20z m-31 -71 c5 -35 -2
-36 -29 -6 -34 37 -34 44 -3 39 22 -3 29 -10 32 -33z m-2392 -618 c0 -11 -17
-33 -25 -33 -16 0 -28 34 -15 42 14 8 40 3 40 -9z m2940 -231 c0 -5 7 -10 15
-10 17 0 20 -16 5 -25 -5 -3 -7 -11 -4 -19 3 -9 -5 -13 -25 -13 -23 0 -30 5
-34 26 -3 16 1 30 11 38 21 15 32 16 32 3z m-3336 -16 c19 -7 9 -34 -14 -34
-21 0 -34 26 -17 34 7 2 13 5 14 5 1 1 8 -2 17 -5z m1660 -810 c17 -7 10 -34
-9 -34 -14 0 -27 25 -18 34 8 7 8 7 27 0z m-4078 -619 c3 -18 -32 -21 -38 -3
-6 18 15 39 26 27 6 -5 11 -16 12 -24z m1967 -332 c-3 -7 -11 -13 -18 -13 -17
0 -26 25 -13 38 13 13 38 -7 31 -25z"/>
<path d="M2478 3808 c-3 -47 -6 -53 -26 -56 -22 -3 -23 -1 -21 45 3 46 2 48
-24 51 l-27 3 0 -110 c0 -99 2 -111 19 -121 32 -17 38 -12 37 33 -1 36 2 42
22 45 20 3 22 -1 22 -41 0 -32 5 -47 16 -51 30 -11 34 -6 34 48 0 35 5 56 13
59 9 3 9 7 0 18 -6 8 -13 39 -15 69 -3 48 -6 55 -25 58 -20 3 -22 -2 -25 -50z"/>
<path d="M2948 3788 c-4 -74 3 -98 28 -98 11 0 14 19 14 79 0 75 -6 91 -35 91
-2 0 -5 -33 -7 -72z"/>
<path d="M3160 3737 c0 -127 3 -137 41 -137 6 0 8 52 7 128 -3 123 -4 127 -25
130 -23 3 -23 2 -23 -121z"/>
<path d="M3261 3851 c-12 -8 -12 -12 -2 -25 7 -9 11 -25 8 -36 -7 -27 19 -26
34 1 8 16 8 28 0 45 -12 26 -18 28 -40 15z"/>
<path d="M4510 3736 l0 -126 25 0 c24 0 25 3 25 54 0 40 5 60 20 77 l21 24 -3
-77 c-3 -75 -3 -78 19 -78 22 0 23 4 23 79 0 87 -11 107 -54 99 -22 -5 -25 -1
-28 31 -2 29 -8 37 -25 39 -23 3 -23 2 -23 -122z"/>
<path d="M5167 3853 c-9 -14 -11 -139 -3 -151 4 -7 15 -12 24 -12 15 0 16 10
12 82 -5 74 -18 106 -33 81z"/>
<path d="M2611 3764 c-25 -32 -28 -100 -5 -132 22 -31 67 -29 89 4 14 22 15
28 4 35 -21 13 -26 11 -32 -12 -6 -24 -30 -21 -35 4 -2 11 7 18 32 23 33 6 36
9 36 40 0 23 -7 38 -22 48 -31 22 -43 20 -67 -10z m46 -39 c-4 -8 -11 -15 -17
-15 -7 0 -7 6 0 21 13 23 26 19 17 -6z"/>
<path d="M2757 3779 c-12 -7 -15 -15 -9 -22 5 -7 19 -38 32 -70 19 -48 21 -62
11 -83 -13 -29 -7 -44 18 -44 13 0 26 26 54 104 20 57 37 107 37 110 0 3 -9 6
-20 6 -15 0 -26 -12 -39 -42 l-18 -42 -18 47 c-19 51 -21 52 -48 36z"/>
<path d="M3350 3700 c0 -89 0 -90 24 -90 22 0 24 3 19 33 -6 37 19 107 38 107
8 0 10 -21 7 -70 -4 -67 -3 -70 19 -70 21 0 23 5 23 45 0 46 17 95 33 95 5 0
8 -30 5 -70 -4 -67 -3 -70 19 -70 22 0 23 3 23 78 0 47 -5 83 -12 90 -16 16
-43 15 -58 -3 -11 -13 -14 -13 -27 0 -17 17 -39 19 -48 5 -4 -7 -12 -7 -25 0
-36 19 -40 12 -40 -80z"/>
<path d="M3750 3774 c-10 -11 -15 -39 -15 -76 0 -68 16 -88 72 -88 41 0 53 21
53 93 0 61 -10 75 -62 83 -25 4 -38 1 -48 -12z m68 -67 c3 -38 -13 -81 -27
-72 -14 8 -21 64 -11 91 14 35 34 25 38 -19z"/>
<path d="M3900 3775 c0 -9 7 -47 16 -86 15 -67 31 -89 66 -89 14 0 61 167 52
182 -3 5 -13 8 -23 8 -13 0 -21 -14 -30 -56 -7 -30 -15 -53 -18 -51 -2 3 -7
27 -11 54 -6 40 -11 49 -30 51 -15 2 -22 -2 -22 -13z"/>
<path d="M4105 3770 c-25 -28 -32 -103 -11 -135 22 -34 69 -34 92 0 8 13 13
29 9 35 -10 17 -32 11 -38 -10 -7 -26 -23 -26 -30 0 -4 16 1 21 29 26 31 6 34
10 34 39 0 59 -49 85 -85 45z m41 -57 c-11 -11 -19 6 -11 24 8 17 8 17 12 0 3
-10 2 -21 -1 -24z"/>
<path d="M4250 3785 c-1 -3 -1 -42 -1 -87 -1 -82 -1 -83 25 -86 24 -3 25 -1
20 27 -5 24 1 41 25 79 36 56 36 58 15 66 -10 4 -22 -1 -30 -11 -13 -17 -13
-17 -14 0 0 10 -8 17 -20 17 -11 0 -20 -2 -20 -5z"/>
<path d="M4724 3782 c-37 -24 -47 -127 -16 -155 29 -27 65 -21 85 12 16 27 16
29 0 35 -15 6 -27 -4 -36 -28 -5 -14 -27 3 -27 19 0 8 15 18 33 23 24 6 33 14
35 34 5 43 -43 81 -74 60z m36 -39 c0 -14 -19 -38 -25 -32 -8 8 5 39 16 39 5
0 9 -3 9 -7z"/>
<path d="M4850 3700 c0 -89 0 -90 25 -90 22 0 25 4 25 38 0 27 9 50 30 79 27
37 28 42 14 54 -14 11 -18 11 -29 -4 -11 -15 -13 -16 -19 -2 -3 8 -15 15 -26
15 -19 0 -20 -6 -20 -90z"/>
<path d="M5028 3779 c-26 -15 -42 -83 -28 -124 11 -33 26 -45 59 -45 24 0 55
36 48 55 -9 22 -34 19 -40 -5 -7 -26 -27 -26 -27 0 0 14 10 22 33 28 29 8 32
12 30 42 -2 49 -37 72 -75 49z m28 -66 c-11 -11 -17 4 -9 23 7 18 8 18 11 1 2
-10 1 -21 -2 -24z"/>
<path d="M2947 3643 c-5 -28 5 -43 31 -43 9 0 12 11 10 32 -4 43 -33 51 -41
11z"/>
<path d="M5162 3638 c2 -22 9 -34 21 -36 15 -3 18 2 15 30 -2 22 -9 34 -21 36
-15 3 -18 -2 -15 -30z"/>
<path d="M5770 3110 c0 -5 5 -10 10 -10 6 0 10 5 10 10 0 6 -4 10 -10 10 -5 0
-10 -4 -10 -10z"/>
<path d="M5830 3103 c8 -3 23 -12 33 -21 21 -19 35 -9 17 13 -7 8 -24 15 -39
14 -15 0 -20 -3 -11 -6z"/>
<path d="M5811 2986 c-16 -19 -6 -36 20 -36 15 0 20 6 17 22 -4 27 -21 33 -37
14z"/>
</g>
</svg>
